<mxfile host="Electron" agent="Mozilla/5.0 (Macintosh; Intel Mac OS X 10_15_7) AppleWebKit/537.36 (KHTML, like Gecko) draw.io/24.7.17 Chrome/128.0.6613.36 Electron/32.0.1 Safari/537.36" version="24.7.17">
  <diagram name="Page-1" id="e7e014a7-5840-1c2e-5031-d8a46d1fe8dd">
    <mxGraphModel dx="2052" dy="1388" grid="1" gridSize="10" guides="1" tooltips="1" connect="1" arrows="1" fold="1" page="1" pageScale="1" pageWidth="1169" pageHeight="826" background="none" math="0" shadow="0">
      <root>
        <mxCell id="0" />
        <mxCell id="1" parent="0" />
        <mxCell id="2qMucZgg_f5K5NUlIa36-111" value="" style="ellipse;shape=startState;fillColor=#000000;strokeColor=#ff0000;" vertex="1" parent="1">
          <mxGeometry x="1585" y="190" width="30" height="30" as="geometry" />
        </mxCell>
        <mxCell id="2qMucZgg_f5K5NUlIa36-113" value="" style="edgeStyle=elbowEdgeStyle;elbow=horizontal;verticalAlign=bottom;endArrow=open;endSize=8;strokeColor=#FF0000;endFill=1;rounded=0;entryX=0.5;entryY=0;entryDx=0;entryDy=0;" edge="1" parent="1">
          <mxGeometry x="40" y="20" as="geometry">
            <mxPoint x="1599.55" y="280" as="targetPoint" />
            <mxPoint x="1599.55" y="220" as="sourcePoint" />
          </mxGeometry>
        </mxCell>
        <mxCell id="2qMucZgg_f5K5NUlIa36-114" value="" style="rhombus;whiteSpace=wrap;html=1;" vertex="1" parent="1">
          <mxGeometry x="1525" y="390" width="150" height="80" as="geometry" />
        </mxCell>
        <mxCell id="2qMucZgg_f5K5NUlIa36-115" value="Thông tin hợp lệ" style="text;html=1;align=center;verticalAlign=middle;whiteSpace=wrap;rounded=0;" vertex="1" parent="1">
          <mxGeometry x="1562.5" y="413" width="75" height="30" as="geometry" />
        </mxCell>
        <mxCell id="2qMucZgg_f5K5NUlIa36-116" value="Điều hướng dashboard" style="rounded=1;whiteSpace=wrap;html=1;" vertex="1" parent="1">
          <mxGeometry x="1540" y="530" width="120" height="60" as="geometry" />
        </mxCell>
        <mxCell id="2qMucZgg_f5K5NUlIa36-108" value="" style="ellipse;shape=endState;fillColor=#000000;strokeColor=#ff0000" vertex="1" parent="1">
          <mxGeometry x="2220" y="1020" width="30" height="30" as="geometry" />
        </mxCell>
        <mxCell id="2qMucZgg_f5K5NUlIa36-118" value="" style="edgeStyle=orthogonalEdgeStyle;rounded=0;orthogonalLoop=1;jettySize=auto;html=1;endArrow=classic;endFill=1;entryX=0.5;entryY=0;entryDx=0;entryDy=0;" edge="1" parent="1">
          <mxGeometry relative="1" as="geometry">
            <mxPoint x="1599.5500000000002" y="470" as="sourcePoint" />
            <mxPoint x="1599.5500000000002" y="530" as="targetPoint" />
          </mxGeometry>
        </mxCell>
        <mxCell id="2qMucZgg_f5K5NUlIa36-119" value="" style="edgeStyle=orthogonalEdgeStyle;rounded=0;orthogonalLoop=1;jettySize=auto;html=1;endArrow=classic;endFill=1;entryX=0.5;entryY=0;entryDx=0;entryDy=0;" edge="1" parent="1">
          <mxGeometry relative="1" as="geometry">
            <mxPoint x="1600.41" y="590" as="sourcePoint" />
            <mxPoint x="1600.41" y="650" as="targetPoint" />
          </mxGeometry>
        </mxCell>
        <mxCell id="2qMucZgg_f5K5NUlIa36-120" value="Yes" style="text;html=1;align=center;verticalAlign=middle;whiteSpace=wrap;rounded=0;" vertex="1" parent="1">
          <mxGeometry x="1600" y="480" width="60" height="30" as="geometry" />
        </mxCell>
        <mxCell id="2qMucZgg_f5K5NUlIa36-121" value="Hiển thị thông báo lỗi" style="rounded=1;whiteSpace=wrap;html=1;" vertex="1" parent="1">
          <mxGeometry x="1770" y="400" width="120" height="60" as="geometry" />
        </mxCell>
        <mxCell id="2qMucZgg_f5K5NUlIa36-122" value="" style="edgeStyle=orthogonalEdgeStyle;rounded=0;orthogonalLoop=1;jettySize=auto;html=1;endArrow=classic;endFill=1;entryX=0;entryY=0.5;entryDx=0;entryDy=0;exitX=1;exitY=0.5;exitDx=0;exitDy=0;" edge="1" parent="1" source="2qMucZgg_f5K5NUlIa36-114" target="2qMucZgg_f5K5NUlIa36-121">
          <mxGeometry relative="1" as="geometry">
            <mxPoint x="1690" y="430" as="sourcePoint" />
            <mxPoint x="1690" y="490" as="targetPoint" />
            <Array as="points" />
          </mxGeometry>
        </mxCell>
        <mxCell id="2qMucZgg_f5K5NUlIa36-123" value="No" style="text;html=1;align=center;verticalAlign=middle;whiteSpace=wrap;rounded=0;" vertex="1" parent="1">
          <mxGeometry x="1680" y="398" width="60" height="30" as="geometry" />
        </mxCell>
        <mxCell id="2qMucZgg_f5K5NUlIa36-124" value="" style="endArrow=classic;html=1;rounded=0;entryX=1;entryY=0.5;entryDx=0;entryDy=0;" edge="1" parent="1">
          <mxGeometry width="50" height="50" relative="1" as="geometry">
            <mxPoint x="1830" y="398" as="sourcePoint" />
            <mxPoint x="1660" y="305" as="targetPoint" />
            <Array as="points">
              <mxPoint x="1830" y="305" />
            </Array>
          </mxGeometry>
        </mxCell>
        <mxCell id="2qMucZgg_f5K5NUlIa36-125" value="Đăng nhập" style="rounded=1;whiteSpace=wrap;html=1;" vertex="1" parent="1">
          <mxGeometry x="1540" y="280" width="120" height="60" as="geometry" />
        </mxCell>
        <mxCell id="2qMucZgg_f5K5NUlIa36-128" value="Luồng đăng nhập vào trang quản lý" style="text;html=1;align=center;verticalAlign=middle;whiteSpace=wrap;rounded=0;" vertex="1" parent="1">
          <mxGeometry x="1490" y="160" width="230" height="30" as="geometry" />
        </mxCell>
        <mxCell id="2qMucZgg_f5K5NUlIa36-129" value="" style="ellipse;shape=startState;fillColor=#000000;strokeColor=#ff0000;" vertex="1" parent="1">
          <mxGeometry x="2195" y="190" width="30" height="30" as="geometry" />
        </mxCell>
        <mxCell id="2qMucZgg_f5K5NUlIa36-130" value="" style="edgeStyle=elbowEdgeStyle;elbow=horizontal;verticalAlign=bottom;endArrow=open;endSize=8;strokeColor=#FF0000;endFill=1;rounded=0;entryX=0.5;entryY=0;entryDx=0;entryDy=0;" edge="1" parent="1">
          <mxGeometry x="40" y="20" as="geometry">
            <mxPoint x="2209.55" y="280" as="targetPoint" />
            <mxPoint x="2209.55" y="220" as="sourcePoint" />
          </mxGeometry>
        </mxCell>
        <mxCell id="2qMucZgg_f5K5NUlIa36-146" value="" style="edgeStyle=orthogonalEdgeStyle;rounded=0;orthogonalLoop=1;jettySize=auto;html=1;" edge="1" parent="1" source="2qMucZgg_f5K5NUlIa36-133" target="2qMucZgg_f5K5NUlIa36-145">
          <mxGeometry relative="1" as="geometry" />
        </mxCell>
        <mxCell id="2qMucZgg_f5K5NUlIa36-133" value="Nhập thông tin món ăn" style="rounded=1;whiteSpace=wrap;html=1;" vertex="1" parent="1">
          <mxGeometry x="2135" y="428" width="150" height="60" as="geometry" />
        </mxCell>
        <mxCell id="2qMucZgg_f5K5NUlIa36-144" value="" style="edgeStyle=orthogonalEdgeStyle;rounded=0;orthogonalLoop=1;jettySize=auto;html=1;" edge="1" parent="1" source="2qMucZgg_f5K5NUlIa36-142" target="2qMucZgg_f5K5NUlIa36-133">
          <mxGeometry relative="1" as="geometry" />
        </mxCell>
        <mxCell id="2qMucZgg_f5K5NUlIa36-142" value="Chọn thêm món mơi" style="rounded=1;whiteSpace=wrap;html=1;" vertex="1" parent="1">
          <mxGeometry x="2150" y="280" width="120" height="60" as="geometry" />
        </mxCell>
        <mxCell id="2qMucZgg_f5K5NUlIa36-143" value="Luồng thêm món ăn trên trang admin - Tương tự luồng thêm mới bàn, order (nhờ bạn copy để vẽ)" style="text;html=1;align=center;verticalAlign=middle;whiteSpace=wrap;rounded=0;" vertex="1" parent="1">
          <mxGeometry x="2020" y="150" width="380" height="30" as="geometry" />
        </mxCell>
        <mxCell id="2qMucZgg_f5K5NUlIa36-149" value="" style="edgeStyle=orthogonalEdgeStyle;rounded=0;orthogonalLoop=1;jettySize=auto;html=1;" edge="1" parent="1" source="2qMucZgg_f5K5NUlIa36-145" target="2qMucZgg_f5K5NUlIa36-148">
          <mxGeometry relative="1" as="geometry" />
        </mxCell>
        <mxCell id="2qMucZgg_f5K5NUlIa36-145" value="Nhập thông tin món ăn" style="rounded=1;whiteSpace=wrap;html=1;" vertex="1" parent="1">
          <mxGeometry x="2135" y="540" width="150" height="60" as="geometry" />
        </mxCell>
        <mxCell id="2qMucZgg_f5K5NUlIa36-148" value="" style="rhombus;whiteSpace=wrap;html=1;" vertex="1" parent="1">
          <mxGeometry x="2167.5" y="650" width="85" height="80" as="geometry" />
        </mxCell>
        <mxCell id="2qMucZgg_f5K5NUlIa36-160" value="" style="edgeStyle=orthogonalEdgeStyle;rounded=0;orthogonalLoop=1;jettySize=auto;html=1;" edge="1" parent="1" source="2qMucZgg_f5K5NUlIa36-151" target="2qMucZgg_f5K5NUlIa36-153">
          <mxGeometry relative="1" as="geometry" />
        </mxCell>
        <mxCell id="2qMucZgg_f5K5NUlIa36-151" value="Lưu thông tin" style="rounded=1;whiteSpace=wrap;html=1;" vertex="1" parent="1">
          <mxGeometry x="1980" y="780" width="120" height="60" as="geometry" />
        </mxCell>
        <mxCell id="2qMucZgg_f5K5NUlIa36-152" value="Hiển thị thông báo lỗi" style="rounded=1;whiteSpace=wrap;html=1;" vertex="1" parent="1">
          <mxGeometry x="2310" y="766" width="120" height="60" as="geometry" />
        </mxCell>
        <mxCell id="2qMucZgg_f5K5NUlIa36-153" value="Hiển thị thông báo thành công" style="rounded=1;whiteSpace=wrap;html=1;" vertex="1" parent="1">
          <mxGeometry x="1980" y="900" width="120" height="60" as="geometry" />
        </mxCell>
        <mxCell id="2qMucZgg_f5K5NUlIa36-155" value="" style="endArrow=classic;html=1;rounded=0;exitX=0;exitY=0.5;exitDx=0;exitDy=0;entryX=0.5;entryY=0;entryDx=0;entryDy=0;" edge="1" parent="1" source="2qMucZgg_f5K5NUlIa36-148" target="2qMucZgg_f5K5NUlIa36-151">
          <mxGeometry width="50" height="50" relative="1" as="geometry">
            <mxPoint x="2160" y="690" as="sourcePoint" />
            <mxPoint x="2040" y="770" as="targetPoint" />
            <Array as="points">
              <mxPoint x="2040" y="690" />
            </Array>
          </mxGeometry>
        </mxCell>
        <mxCell id="2qMucZgg_f5K5NUlIa36-156" value="" style="endArrow=classic;html=1;rounded=0;entryX=0.5;entryY=0;entryDx=0;entryDy=0;exitX=1;exitY=0.5;exitDx=0;exitDy=0;" edge="1" parent="1" source="2qMucZgg_f5K5NUlIa36-148" target="2qMucZgg_f5K5NUlIa36-152">
          <mxGeometry width="50" height="50" relative="1" as="geometry">
            <mxPoint x="2200" y="820" as="sourcePoint" />
            <mxPoint x="2040" y="810" as="targetPoint" />
            <Array as="points">
              <mxPoint x="2370" y="690" />
            </Array>
          </mxGeometry>
        </mxCell>
        <mxCell id="2qMucZgg_f5K5NUlIa36-157" value="" style="ellipse;shape=endState;fillColor=#000000;strokeColor=#ff0000" vertex="1" parent="1">
          <mxGeometry x="1585" y="650" width="30" height="30" as="geometry" />
        </mxCell>
        <mxCell id="2qMucZgg_f5K5NUlIa36-158" value="Yes" style="text;html=1;align=center;verticalAlign=middle;whiteSpace=wrap;rounded=0;" vertex="1" parent="1">
          <mxGeometry x="2060" y="660" width="60" height="30" as="geometry" />
        </mxCell>
        <mxCell id="2qMucZgg_f5K5NUlIa36-159" value="No" style="text;html=1;align=center;verticalAlign=middle;whiteSpace=wrap;rounded=0;" vertex="1" parent="1">
          <mxGeometry x="2285" y="650" width="60" height="30" as="geometry" />
        </mxCell>
        <mxCell id="2qMucZgg_f5K5NUlIa36-161" value="" style="endArrow=classic;html=1;rounded=0;entryX=0;entryY=0.5;entryDx=0;entryDy=0;exitX=0.5;exitY=1;exitDx=0;exitDy=0;" edge="1" parent="1" source="2qMucZgg_f5K5NUlIa36-153" target="2qMucZgg_f5K5NUlIa36-108">
          <mxGeometry width="50" height="50" relative="1" as="geometry">
            <mxPoint x="2020" y="780" as="sourcePoint" />
            <mxPoint x="2200" y="1020" as="targetPoint" />
            <Array as="points">
              <mxPoint x="2040" y="1035" />
            </Array>
          </mxGeometry>
        </mxCell>
        <mxCell id="2qMucZgg_f5K5NUlIa36-162" value="" style="endArrow=classic;html=1;rounded=0;entryX=1;entryY=0.5;entryDx=0;entryDy=0;exitX=0.5;exitY=1;exitDx=0;exitDy=0;" edge="1" parent="1" source="2qMucZgg_f5K5NUlIa36-152" target="2qMucZgg_f5K5NUlIa36-108">
          <mxGeometry width="50" height="50" relative="1" as="geometry">
            <mxPoint x="2020" y="780" as="sourcePoint" />
            <mxPoint x="2070" y="730" as="targetPoint" />
            <Array as="points">
              <mxPoint x="2370" y="1035" />
            </Array>
          </mxGeometry>
        </mxCell>
        <mxCell id="2qMucZgg_f5K5NUlIa36-163" value="Khách hàng" style="swimlane;whiteSpace=wrap" vertex="1" parent="1">
          <mxGeometry x="720" y="150" width="320" height="1050" as="geometry" />
        </mxCell>
        <mxCell id="2qMucZgg_f5K5NUlIa36-164" value="" style="ellipse;shape=startState;fillColor=#000000;strokeColor=#ff0000;" vertex="1" parent="2qMucZgg_f5K5NUlIa36-163">
          <mxGeometry x="100" y="40" width="30" height="30" as="geometry" />
        </mxCell>
        <mxCell id="2qMucZgg_f5K5NUlIa36-165" value="" style="edgeStyle=elbowEdgeStyle;elbow=horizontal;verticalAlign=bottom;endArrow=open;endSize=8;strokeColor=#FF0000;endFill=1;rounded=0" edge="1" parent="2qMucZgg_f5K5NUlIa36-163" source="2qMucZgg_f5K5NUlIa36-164">
          <mxGeometry x="100" y="40" as="geometry">
            <mxPoint x="115.55555555555543" y="110" as="targetPoint" />
          </mxGeometry>
        </mxCell>
        <mxCell id="2qMucZgg_f5K5NUlIa36-230" value="" style="edgeStyle=orthogonalEdgeStyle;rounded=0;orthogonalLoop=1;jettySize=auto;html=1;" edge="1" parent="2qMucZgg_f5K5NUlIa36-163" source="2qMucZgg_f5K5NUlIa36-194" target="2qMucZgg_f5K5NUlIa36-196">
          <mxGeometry relative="1" as="geometry" />
        </mxCell>
        <mxCell id="2qMucZgg_f5K5NUlIa36-194" value="Quét QR trên bàn" style="rounded=1;whiteSpace=wrap;html=1;" vertex="1" parent="2qMucZgg_f5K5NUlIa36-163">
          <mxGeometry x="55" y="110" width="120" height="60" as="geometry" />
        </mxCell>
        <mxCell id="2qMucZgg_f5K5NUlIa36-196" value="Nhập tên" style="rounded=1;whiteSpace=wrap;html=1;" vertex="1" parent="2qMucZgg_f5K5NUlIa36-163">
          <mxGeometry x="55" y="250" width="120" height="60" as="geometry" />
        </mxCell>
        <mxCell id="2qMucZgg_f5K5NUlIa36-219" value="" style="edgeStyle=orthogonalEdgeStyle;rounded=0;orthogonalLoop=1;jettySize=auto;html=1;" edge="1" parent="2qMucZgg_f5K5NUlIa36-163" source="2qMucZgg_f5K5NUlIa36-198" target="2qMucZgg_f5K5NUlIa36-199">
          <mxGeometry relative="1" as="geometry" />
        </mxCell>
        <mxCell id="2qMucZgg_f5K5NUlIa36-198" value="Chọn món ăn" style="rounded=1;whiteSpace=wrap;html=1;" vertex="1" parent="2qMucZgg_f5K5NUlIa36-163">
          <mxGeometry x="55" y="380" width="120" height="60" as="geometry" />
        </mxCell>
        <mxCell id="2qMucZgg_f5K5NUlIa36-199" value="Xác nhận đơn hàng" style="rounded=1;whiteSpace=wrap;html=1;" vertex="1" parent="2qMucZgg_f5K5NUlIa36-163">
          <mxGeometry x="55" y="490" width="120" height="60" as="geometry" />
        </mxCell>
        <mxCell id="2qMucZgg_f5K5NUlIa36-172" value="Hệ thống" style="swimlane;whiteSpace=wrap" vertex="1" parent="1">
          <mxGeometry x="1040" y="150" width="280" height="1050" as="geometry" />
        </mxCell>
        <mxCell id="2qMucZgg_f5K5NUlIa36-191" value="" style="ellipse;shape=endState;fillColor=#000000;strokeColor=#ff0000" vertex="1" parent="2qMucZgg_f5K5NUlIa36-172">
          <mxGeometry x="120" y="990" width="30" height="30" as="geometry" />
        </mxCell>
        <mxCell id="2qMucZgg_f5K5NUlIa36-197" value="Hiển thị menu" style="rounded=1;whiteSpace=wrap;html=1;" vertex="1" parent="2qMucZgg_f5K5NUlIa36-172">
          <mxGeometry x="75" y="310" width="120" height="60" as="geometry" />
        </mxCell>
        <mxCell id="2qMucZgg_f5K5NUlIa36-221" value="" style="edgeStyle=orthogonalEdgeStyle;rounded=0;orthogonalLoop=1;jettySize=auto;html=1;" edge="1" parent="2qMucZgg_f5K5NUlIa36-172" source="2qMucZgg_f5K5NUlIa36-201" target="2qMucZgg_f5K5NUlIa36-202">
          <mxGeometry relative="1" as="geometry" />
        </mxCell>
        <mxCell id="2qMucZgg_f5K5NUlIa36-201" value="Kiểm tra thông tin đơn hàng" style="rounded=1;whiteSpace=wrap;html=1;" vertex="1" parent="2qMucZgg_f5K5NUlIa36-172">
          <mxGeometry x="80" y="550" width="120" height="60" as="geometry" />
        </mxCell>
        <mxCell id="2qMucZgg_f5K5NUlIa36-222" value="" style="edgeStyle=orthogonalEdgeStyle;rounded=0;orthogonalLoop=1;jettySize=auto;html=1;entryX=0.446;entryY=-0.025;entryDx=0;entryDy=0;entryPerimeter=0;" edge="1" parent="2qMucZgg_f5K5NUlIa36-172" source="2qMucZgg_f5K5NUlIa36-202" target="2qMucZgg_f5K5NUlIa36-205">
          <mxGeometry relative="1" as="geometry" />
        </mxCell>
        <mxCell id="2qMucZgg_f5K5NUlIa36-223" style="edgeStyle=orthogonalEdgeStyle;rounded=0;orthogonalLoop=1;jettySize=auto;html=1;entryX=0.5;entryY=0;entryDx=0;entryDy=0;" edge="1" parent="2qMucZgg_f5K5NUlIa36-172" source="2qMucZgg_f5K5NUlIa36-202" target="2qMucZgg_f5K5NUlIa36-206">
          <mxGeometry relative="1" as="geometry" />
        </mxCell>
        <mxCell id="2qMucZgg_f5K5NUlIa36-202" value="" style="rhombus;whiteSpace=wrap;html=1;" vertex="1" parent="2qMucZgg_f5K5NUlIa36-172">
          <mxGeometry x="107.5" y="650" width="65" height="50" as="geometry" />
        </mxCell>
        <mxCell id="2qMucZgg_f5K5NUlIa36-227" value="" style="edgeStyle=orthogonalEdgeStyle;rounded=0;orthogonalLoop=1;jettySize=auto;html=1;" edge="1" parent="2qMucZgg_f5K5NUlIa36-172" source="2qMucZgg_f5K5NUlIa36-205" target="2qMucZgg_f5K5NUlIa36-207">
          <mxGeometry relative="1" as="geometry" />
        </mxCell>
        <mxCell id="2qMucZgg_f5K5NUlIa36-205" value="Lưu thông tin" style="rounded=1;whiteSpace=wrap;html=1;" vertex="1" parent="2qMucZgg_f5K5NUlIa36-172">
          <mxGeometry x="9" y="750" width="120" height="60" as="geometry" />
        </mxCell>
        <mxCell id="2qMucZgg_f5K5NUlIa36-226" style="edgeStyle=orthogonalEdgeStyle;rounded=0;orthogonalLoop=1;jettySize=auto;html=1;entryX=1;entryY=0.5;entryDx=0;entryDy=0;" edge="1" parent="2qMucZgg_f5K5NUlIa36-172" source="2qMucZgg_f5K5NUlIa36-206" target="2qMucZgg_f5K5NUlIa36-191">
          <mxGeometry relative="1" as="geometry" />
        </mxCell>
        <mxCell id="2qMucZgg_f5K5NUlIa36-206" value="Hiển thị lỗi" style="rounded=1;whiteSpace=wrap;html=1;" vertex="1" parent="2qMucZgg_f5K5NUlIa36-172">
          <mxGeometry x="150" y="750" width="120" height="60" as="geometry" />
        </mxCell>
        <mxCell id="2qMucZgg_f5K5NUlIa36-228" style="edgeStyle=orthogonalEdgeStyle;rounded=0;orthogonalLoop=1;jettySize=auto;html=1;entryX=0;entryY=0.5;entryDx=0;entryDy=0;" edge="1" parent="2qMucZgg_f5K5NUlIa36-172" source="2qMucZgg_f5K5NUlIa36-207" target="2qMucZgg_f5K5NUlIa36-191">
          <mxGeometry relative="1" as="geometry" />
        </mxCell>
        <mxCell id="2qMucZgg_f5K5NUlIa36-207" value="Hiển thị xác nhận đơn hàng" style="rounded=1;whiteSpace=wrap;html=1;" vertex="1" parent="2qMucZgg_f5K5NUlIa36-172">
          <mxGeometry x="9" y="870" width="120" height="60" as="geometry" />
        </mxCell>
        <mxCell id="2qMucZgg_f5K5NUlIa36-224" value="Yes" style="text;html=1;align=center;verticalAlign=middle;whiteSpace=wrap;rounded=0;" vertex="1" parent="2qMucZgg_f5K5NUlIa36-172">
          <mxGeometry x="47.5" y="690" width="60" height="30" as="geometry" />
        </mxCell>
        <mxCell id="2qMucZgg_f5K5NUlIa36-225" value="No" style="text;html=1;align=center;verticalAlign=middle;whiteSpace=wrap;rounded=0;" vertex="1" parent="2qMucZgg_f5K5NUlIa36-172">
          <mxGeometry x="172.5" y="690" width="60" height="30" as="geometry" />
        </mxCell>
        <mxCell id="2qMucZgg_f5K5NUlIa36-193" value="Luồng khách hàng tạo đơn" style="text;html=1;align=center;verticalAlign=middle;whiteSpace=wrap;rounded=0;" vertex="1" parent="1">
          <mxGeometry x="830" y="100" width="230" height="30" as="geometry" />
        </mxCell>
        <mxCell id="2qMucZgg_f5K5NUlIa36-220" value="" style="edgeStyle=orthogonalEdgeStyle;rounded=0;orthogonalLoop=1;jettySize=auto;html=1;entryX=-0.004;entryY=0.642;entryDx=0;entryDy=0;entryPerimeter=0;exitX=1;exitY=0.5;exitDx=0;exitDy=0;" edge="1" parent="1" source="2qMucZgg_f5K5NUlIa36-199" target="2qMucZgg_f5K5NUlIa36-201">
          <mxGeometry relative="1" as="geometry">
            <mxPoint x="845" y="600" as="sourcePoint" />
            <mxPoint x="845" y="650" as="targetPoint" />
          </mxGeometry>
        </mxCell>
        <mxCell id="2qMucZgg_f5K5NUlIa36-231" style="edgeStyle=orthogonalEdgeStyle;rounded=0;orthogonalLoop=1;jettySize=auto;html=1;entryX=0;entryY=0.5;entryDx=0;entryDy=0;" edge="1" parent="1" source="2qMucZgg_f5K5NUlIa36-196" target="2qMucZgg_f5K5NUlIa36-197">
          <mxGeometry relative="1" as="geometry" />
        </mxCell>
        <mxCell id="2qMucZgg_f5K5NUlIa36-232" style="edgeStyle=orthogonalEdgeStyle;rounded=0;orthogonalLoop=1;jettySize=auto;html=1;entryX=1;entryY=0.5;entryDx=0;entryDy=0;" edge="1" parent="1" source="2qMucZgg_f5K5NUlIa36-197" target="2qMucZgg_f5K5NUlIa36-198">
          <mxGeometry relative="1" as="geometry">
            <Array as="points">
              <mxPoint x="1170" y="560" />
            </Array>
          </mxGeometry>
        </mxCell>
      </root>
    </mxGraphModel>
  </diagram>
</mxfile>
